<svg xmlns="http://www.w3.org/2000/svg" xmlns:xlink="http://www.w3.org/1999/xlink" width="500" zoomAndPan="magnify" viewBox="0 0 375 374.999991" height="500" preserveAspectRatio="xMidYMid meet" version="1.0"><defs><g/><clipPath id="d2e63f150e"><path d="M 230.386719 65.96875 L 287.179688 65.96875 L 287.179688 122.761719 L 230.386719 122.761719 Z M 230.386719 65.96875 " clip-rule="nonzero"/></clipPath><clipPath id="40c4d0894c"><path d="M 258.78125 65.96875 C 243.101562 65.96875 230.386719 78.679688 230.386719 94.363281 C 230.386719 110.046875 243.101562 122.761719 258.78125 122.761719 C 274.464844 122.761719 287.179688 110.046875 287.179688 94.363281 C 287.179688 78.679688 274.464844 65.96875 258.78125 65.96875 " clip-rule="nonzero"/></clipPath><clipPath id="b7be6a39d9"><path d="M 89.765625 255.597656 L 146.558594 255.597656 L 146.558594 312.390625 L 89.765625 312.390625 Z M 89.765625 255.597656 " clip-rule="nonzero"/></clipPath><clipPath id="f609dbc7be"><path d="M 118.164062 255.597656 C 102.480469 255.597656 89.765625 268.3125 89.765625 283.992188 C 89.765625 299.675781 102.480469 312.390625 118.164062 312.390625 C 133.847656 312.390625 146.558594 299.675781 146.558594 283.992188 C 146.558594 268.3125 133.847656 255.597656 118.164062 255.597656 " clip-rule="nonzero"/></clipPath></defs><g fill="#e3405f" fill-opacity="1"><g transform="translate(157.654389, 319.528976)"><g><path d="M 159.796875 -11.53125 L 144.515625 -88.65625 L 160.46875 -169.5625 L 192.609375 -169.5625 Z M 150.9375 -7.53125 L 118.796875 -7.53125 L 100.1875 -100.1875 L 80.90625 -7.53125 L 49.421875 -7.53125 L 82 -169.5625 L 117.46875 -169.5625 Z M 39.671875 -11.53125 L 7.53125 -169.5625 L 39.015625 -169.5625 L 55.859375 -89.09375 Z M 39.671875 -11.53125 "/></g></g></g><g clip-path="url(#d2e63f150e)"><g clip-path="url(#40c4d0894c)"><path fill="#e3405f" d="M 230.386719 65.96875 L 287.179688 65.96875 L 287.179688 122.761719 L 230.386719 122.761719 Z M 230.386719 65.96875 " fill-opacity="1" fill-rule="nonzero"/></g></g><g fill="#e3405f" fill-opacity="1"><g transform="translate(219.288741, 55.460972)"><g><path d="M -159.796875 11.53125 L -144.515625 88.65625 L -160.46875 169.5625 L -192.609375 169.5625 Z M -150.9375 7.53125 L -118.796875 7.53125 L -100.1875 100.1875 L -80.90625 7.53125 L -49.421875 7.53125 L -82 169.5625 L -117.46875 169.5625 Z M -39.671875 11.53125 L -7.53125 169.5625 L -39.015625 169.5625 L -55.859375 89.09375 Z M -39.671875 11.53125 "/></g></g></g><g clip-path="url(#b7be6a39d9)"><g clip-path="url(#f609dbc7be)"><path fill="#e3405f" d="M 89.765625 255.597656 L 146.558594 255.597656 L 146.558594 312.390625 L 89.765625 312.390625 Z M 89.765625 255.597656 " fill-opacity="1" fill-rule="nonzero"/></g></g></svg>